<svg version="1.2" xmlns="http://www.w3.org/2000/svg" viewBox="0 0 31 30" width="31" height="30">
	<style>
		.s0 { fill: #1cbaae } 
	</style>
	<g id="Top">
		<path id="-e-icon-ig" fill-rule="evenodd" class="s0" d="m12.6 14.8c0-0.67 0.22-1.29 0.58-1.79 0.56-0.77 1.47-1.28 2.49-1.28 1.02 0 1.93 0.51 2.49 1.28 0.36 0.5 0.58 1.12 0.58 1.79 0 1.69-1.38 3.07-3.07 3.07-1.69 0-3.07-1.38-3.07-3.07zm7.48-1.79h2.61v7.14c0 0.92-0.75 1.67-1.67 1.67h-10.7c-0.92 0-1.67-0.75-1.67-1.67v-7.14h2.61q-0.35 0.83-0.36 1.79c0 2.63 2.14 4.77 4.77 4.77 2.63 0 4.76-2.14 4.76-4.77q0-0.96-0.35-1.79zm-0.66-1.96l-0.01-2.95 2.57-0.01h0.39v2.96zm10.97 3.74c0 8.13-6.59 14.73-14.73 14.73-8.13 0-14.72-6.6-14.72-14.73 0-8.13 6.59-14.73 14.72-14.73 8.14 0 14.73 6.6 14.73 14.73zm-6.01-5.35c0-1.85-1.51-3.36-3.37-3.36h-10.69c-1.86 0-3.37 1.51-3.37 3.36v10.7c0 1.86 1.51 3.37 3.37 3.37h10.69c1.86 0 3.37-1.51 3.37-3.37z"/>
	</g>
</svg>