<svg version="1.2" xmlns="http://www.w3.org/2000/svg" viewBox="0 0 31 16" width="31" height="16">
	<style>
		.s0 { fill: #ffffff } 
	</style>
	<g id="Slider">
		<path id="-e-icon-arrow-long" class="s0" d="m30.84 7.64q0.01 0.03 0.02 0.06 0.05 0.17 0.06 0.34-0.01 0.18-0.06 0.34-0.01 0.04-0.02 0.07-0.06 0.16-0.17 0.29 0 0.01-0.01 0.01l-5.62 6.39c-0.39 0.48-1.09 0.54-1.56 0.15-0.26-0.21-0.41-0.52-0.41-0.86q0.01-0.4 0.26-0.71l4.12-4.56h-25.44c-0.61 0-1.11-0.5-1.11-1.12 0-0.61 0.5-1.11 1.11-1.11h25.44l-4.12-4.57q-0.25-0.31-0.26-0.71c0-0.33 0.15-0.64 0.41-0.86q0.35-0.28 0.81-0.24 0.46 0.04 0.75 0.4l5.62 6.38q0.01 0.01 0.01 0.02 0.11 0.13 0.17 0.29z"/>
	</g>
</svg>