<svg version="1.2" xmlns="http://www.w3.org/2000/svg" viewBox="0 0 27 17" width="27" height="17">
	<style>
		.s0 { fill: #1cbaae } 
	</style>
	<g id="About">
		<path id="-e-icon-charging" fill-rule="evenodd" class="s0" d="m1.34 16.38c-0.61 0-1.11-0.52-1.11-1.16v-13.44c0-0.64 0.5-1.16 1.11-1.16h21.74c0.62 0 1.11 0.52 1.11 1.16v3.09c0.2-0.33 0.54-0.55 0.94-0.55 0.61 0 1.11 0.52 1.11 1.16v6.05c0 0.63-0.5 1.15-1.11 1.15-0.4 0-0.74-0.22-0.94-0.55v3.09c0 0.64-0.49 1.16-1.11 1.16zm20.64-2.31v-11.14h-19.53v11.14zm-17.51-2.54v-6.05c0-0.64 0.49-1.16 1.11-1.16 0.61 0 1.1 0.52 1.1 1.16v6.05c0 0.63-0.49 1.15-1.1 1.15-0.62 0-1.11-0.52-1.11-1.15zm4.43 0v-6.05c0-0.64 0.49-1.16 1.1-1.16 0.61 0 1.11 0.52 1.11 1.16v6.05c0 0.63-0.5 1.15-1.11 1.15-0.61 0-1.1-0.52-1.1-1.15zm4.42 0v-6.05c0-0.64 0.5-1.16 1.11-1.16 0.61 0 1.11 0.52 1.11 1.16v6.05c0 0.63-0.5 1.15-1.11 1.15-0.61 0-1.11-0.52-1.11-1.15zm4.43 0v-6.05c0-0.64 0.49-1.16 1.11-1.16 0.61 0 1.1 0.52 1.1 1.16v6.05c0 0.63-0.49 1.15-1.1 1.15-0.62 0-1.11-0.52-1.11-1.15z"/>
	</g>
</svg>