<svg version="1.2" xmlns="http://www.w3.org/2000/svg" viewBox="0 0 28 27" width="28" height="27">
	<style>
		.s0 { fill: #1cbaae } 
	</style>
	<g id="About">
		<path id="-e-icon-electricity" fill-rule="evenodd" class="s0" d="m27.62 13.49c0 7.46-6.08 13.54-13.55 13.54-7.46 0-13.54-6.08-13.54-13.54 0-7.47 6.08-13.55 13.54-13.55 7.47 0 13.55 6.08 13.55 13.55zm-2.26 0c0-6.23-5.06-11.29-11.29-11.29-6.22 0-11.28 5.06-11.28 11.29 0 6.22 5.06 11.28 11.28 11.28 6.23 0 11.29-5.06 11.29-11.28zm-2.26 0h-2.25c0-3.74-3.04-6.78-6.78-6.78-3.73 0-6.77 3.04-6.77 6.78h-2.26c0-4.98 4.06-9.03 9.03-9.03 4.98 0 9.03 4.05 9.03 9.03zm-6.77 1.13c0 1.24-1.01 2.25-2.26 2.25-1.24 0-2.25-1.01-2.25-2.25q0-0.3 0.08-0.58l-2.57-2.58 1.59-1.59 2.58 2.57q0.27-0.08 0.57-0.08c1.25 0 2.26 1.01 2.26 2.26z"/>
	</g>
</svg>