<svg version="1.2" xmlns="http://www.w3.org/2000/svg" viewBox="0 0 31 31" width="31" height="31">
	<style>
		.s0 { fill: #1cbaae } 
	</style>
	<g id="Top">
		<path id="-e-icon-fb" class="s0" d="m15.36 0.83c-8.13 0-14.72 6.59-14.72 14.72 0 8.12 6.59 14.71 14.72 14.71 8.12 0 14.71-6.59 14.71-14.71 0-8.13-6.59-14.72-14.71-14.72zm3.79 11.81l-0.2 2.57h-2.63v8.93h-3.33v-8.93h-1.78v-2.57h1.78v-1.73c0-0.76 0.02-1.93 0.57-2.66 0.58-0.77 1.38-1.29 2.76-1.29 2.24 0 3.18 0.32 3.18 0.32l-0.44 2.63c0 0-0.74-0.22-1.43-0.22-0.69 0-1.31 0.25-1.31 0.94v2.01z"/>
	</g>
</svg>