<svg version="1.2" xmlns="http://www.w3.org/2000/svg" viewBox="0 0 33 26" width="33" height="26">
	<style>
		.s0 { fill: #1cbaae } 
	</style>
	<g id="About">
		<path id="-e-icon-cabels" class="s0" d="m20.81 0.37c-5.1 0-9.7 3.29-11.43 8.18l-0.08 0.23h2.58l0.05-0.1c1.58-3.56 5.07-5.86 8.88-5.86 5.38 0 9.75 4.46 9.75 9.95 0 5.48-4.37 9.94-9.75 9.94-3.69 0-7.03-2.09-8.7-5.46l-0.05-0.09h-2.62l0.09 0.23c1.85 4.73 6.28 7.78 11.28 7.78 6.7 0 12.16-5.57 12.16-12.4 0-6.84-5.46-12.4-12.16-12.4zm-3.6 14.3c0.7 1.38 2.08 2.24 3.6 2.24 2.24 0 4.06-1.86 4.06-4.14 0-2.29-1.82-4.14-4.06-4.14-1.66 0-3.14 1.01-3.76 2.59l-0.15 0.37h-16.68v2.76h16.82z"/>
	</g>
</svg>