<svg version="1.2" xmlns="http://www.w3.org/2000/svg" viewBox="0 0 28 28" width="28" height="28">
	<style>
		.s0 { fill: #1cbaae } 
	</style>
	<g id="About">
		<path id="-e-icon-quality" fill-rule="evenodd" class="s0" d="m25.09 10.89h2.79v6.77h-2.79q-0.3 0.95-0.76 1.83l1.97 1.97-4.79 4.79-1.97-1.97q-0.88 0.46-1.82 0.76v2.78h-6.77v-2.78q-0.95-0.3-1.83-0.76l-1.97 1.97-4.79-4.79 1.97-1.97q-0.46-0.88-0.76-1.83h-2.78v-6.77h2.78q0.3-0.95 0.76-1.83l-1.97-1.97 4.79-4.78 1.97 1.97q0.88-0.47 1.83-0.76v-2.79h6.77v2.79q0.94 0.29 1.82 0.76l1.97-1.97 4.79 4.78-1.97 1.97q0.46 0.88 0.76 1.83zm0.53 2.26h-2.29l-0.2-0.88q-0.34-1.49-1.16-2.79l-0.48-0.76 1.62-1.63-1.6-1.59-1.62 1.62-0.76-0.48q-1.3-0.82-2.79-1.16l-0.88-0.2v-2.29h-2.26v2.29l-0.88 0.2q-1.48 0.34-2.79 1.16l-0.76 0.48-1.62-1.62-1.6 1.59 1.62 1.63-0.48 0.76q-0.82 1.3-1.16 2.79l-0.2 0.88h-2.29v2.26h2.29l0.2 0.87q0.34 1.49 1.16 2.8l0.48 0.76-1.62 1.62 1.6 1.6 1.62-1.63 0.76 0.48q1.31 0.82 2.79 1.16l0.88 0.2v2.29h2.26v-2.29l0.88-0.2q1.48-0.34 2.79-1.16l0.76-0.48 1.62 1.63 1.6-1.6-1.62-1.62 0.48-0.76q0.82-1.31 1.16-2.8l0.2-0.87h2.29zm-7.57-3.06l1.59 1.6-6.44 6.44-3.05-3.06 1.59-1.59 1.46 1.46z"/>
	</g>
</svg>