<svg version="1.2" xmlns="http://www.w3.org/2000/svg" viewBox="0 0 30 32" width="30" height="32">
	<style>
		.s0 { fill: #1cbaae } 
	</style>
	<g id="About">
		<path id="-e-icon-space" class="s0" d="m13.73 23.36l2.75-1.59 5.93 10.29 6.9-3.98-5.94-10.29 6.01-3.46-4.3-7.44-6.01 3.47-5.94-10.31-6.9 3.98 5.95 10.31-2.75 1.58 1.7 2.93-0.63 0.37c-1.86-2.33-5.21-3.02-7.87-1.49l-1.9 1.1 1.09 1.91 3.93 6.8 1.1 1.91 1.91-1.1c2.66-1.54 3.74-4.78 2.64-7.56l0.64-0.36zm7.74-4.45l4.83 8.36-3.08 1.78-4.83-8.36zm-7.41-5.71l-4.83-8.37 3.08-1.78 4.83 8.37zm-6.4 13.24l-3.93-6.81c1.88-1.08 4.28-0.44 5.37 1.44 1.08 1.88 0.44 4.28-1.44 5.37zm16.61-16.55l2.1 3.63-11.84 6.83-2.09-3.63z"/>
	</g>
</svg>