<svg version="1.2" xmlns="http://www.w3.org/2000/svg" viewBox="0 0 30 30" width="30" height="30">
	<style>
		.s0 { fill: #1cbaae } 
	</style>
	<g id="Top">
		<path id="-e-icon-yt" fill-rule="evenodd" class="s0" d="m12.19 11.67l5.99 3.52-5.99 3.52zm17.2 3.02c0 8.1-6.57 14.67-14.67 14.67-8.11 0-14.68-6.57-14.68-14.67 0-8.11 6.57-14.68 14.68-14.68 8.1 0 14.67 6.57 14.67 14.68zm-5.61-2.78c0 0 0-3.15-3.15-3.15h-11.99c0 0-3.15 0-3.15 3.15v6.54c0 0 0 3.15 3.15 3.15h11.99c0 0 3.15 0 3.15-3.15z"/>
	</g>
</svg>