<svg version="1.2" xmlns="http://www.w3.org/2000/svg" viewBox="0 0 32 33" width="32" height="33">
	<style>
		.s0 { fill: #1cbaae } 
	</style>
	<g id="About">
		<path id="-e-icon-pepe" class="s0" d="m22.88 24.92c1.99-2.11 1.61-5.12 1.07-6.57l-0.36-0.98c1.4-1.41 2.71-2.74 3.66-3.73 3.97-4.16 2.58-9.57 2.52-9.79l-0.01-0.02 2.02-2.01c0.36-0.36 0.35-0.95-0.02-1.31-0.36-0.37-0.95-0.37-1.31-0.01l-2.01 2.01-0.01-0.01c-0.23-0.06-5.63-1.45-9.8 2.53-1.03 0.98-2.44 2.37-3.91 3.84-0.71-0.68-4.67-1.78-7.24 0.64-1.86 1.75-5.91 5.91-6.08 6.08l-1.27 1.3 1.31 1.31 0.18 0.18 1.8 1.8 1.33 1.32 1.29-1.29 1.17-1.17 0.03 0.03 0.28 0.28 0.44 0.44c-1.01 1.02-1.74 1.77-1.76 1.79l-0.69 0.7 4.57 4.57 0.7-0.69c0.02-0.02 0.76-0.75 1.79-1.76l0.36 0.36 0.28 0.28 0.14 0.14-1.16 1.17-1.3 1.3 1.32 1.32 1.8 1.8 0.19 0.19 1.3 1.3 1.3-1.26c0.18-0.17 4.33-4.23 6.08-6.08zm-18.16-6.03l-1.8-1.8-0.19-0.19c0 0 4.18-4.28 6.03-6.03 1.8-1.7 4.53-0.75 4.66-0.7-0.89 0.89-1.77 1.78-2.58 2.59zm23.26-14.59c0 0 1.23 4.57-2.08 8.05l-5.96-5.97c3.47-3.31 8.04-2.08 8.04-2.08zm-15.53 17.39q-0.7 0.69-1.3 1.29-0.64 0.63-1.08 1.07l-1.75-1.75q0.44-0.45 1.07-1.08 0.6-0.6 1.29-1.3c1.39-1.4 2.95-2.95 3.91-3.88 1.08-1.04 2.29-1.28 3.05-1.31-0.03 0.76-0.27 1.97-1.31 3.04-0.93 0.97-2.48 2.52-3.88 3.92zm2.06 2.06l-0.28-0.28-0.36-0.36c1.41-1.4 2.97-2.96 3.91-3.94 2.36-2.46 1.8-5.43 1.78-5.56l-0.13-0.67-0.67-0.13c-0.13-0.03-3.1-0.58-5.56 1.78-0.98 0.94-2.54 2.5-3.94 3.91l-0.45-0.44-0.27-0.28c0 0 1.61-1.65 3.7-3.76l2.52-2.51 1.29-1.3-0.01-0.01c0.82-0.81 1.62-1.6 2.33-2.31l6.02 6.02c-3.77 3.84-9.88 9.84-9.88 9.84zm0.99 5.92l-0.19-0.19-1.8-1.8 8.71-8.71c0 0 1.05 2.82-0.7 4.67-1.74 1.85-6.02 6.03-6.02 6.03z"/>
	</g>
</svg>