<svg version="1.2" xmlns="http://www.w3.org/2000/svg" viewBox="0 0 27 28" width="27" height="28">
	<style>
		.s0 { fill: #1cbaae } 
	</style>
	<g id="About">
		<path id="-e-icon-egse" fill-rule="evenodd" class="s0" d="m24.21 15.64c0-7.02-5.55-12.73-12.38-12.73-0.61 0-1.11-0.51-1.11-1.14 0-0.64 0.5-1.15 1.11-1.15 8.06 0 14.61 6.74 14.61 15.02 0 0.63-0.5 1.14-1.11 1.14-0.62 0-1.12-0.51-1.12-1.14zm-4.57 0c0-4.43-3.5-8.03-7.81-8.03-0.61 0-1.11-0.51-1.11-1.14 0-0.64 0.5-1.15 1.11-1.15 5.54 0 10.04 4.63 10.04 10.32 0 0.63-0.5 1.14-1.11 1.14-0.62 0-1.12-0.51-1.12-1.14zm-15.63 8.38c-2.3-2.36-3.56-5.49-3.56-8.82 0-3.34 1.26-6.47 3.56-8.83 0.43-0.44 1.14-0.44 1.57 0l7 7.21 1.24-1.28c0.43-0.44 1.14-0.44 1.57 0 0.44 0.45 0.44 1.18 0 1.62l-1.23 1.28 7 7.2c0.21 0.21 0.33 0.51 0.33 0.81 0 0.3-0.12 0.6-0.33 0.81-2.29 2.36-5.34 3.65-8.58 3.65-3.24 0-6.28-1.29-8.57-3.65zm-1.33-8.82c0 2.72 1.03 5.28 2.9 7.2 1.87 1.92 4.36 2.98 7 2.98 2.27 0 4.43-0.78 6.18-2.21l-13.92-14.32c-1.4 1.8-2.16 4.01-2.16 6.35z"/>
	</g>
</svg>